<svg width="34" height="36" viewBox="0 0 34 36" fill="none" xmlns="http://www.w3.org/2000/svg">
<path d="M13.7375 0.0133704C14.7912 -0.0291325 15.8399 0.0467656 16.8831 0.0513195C20.8891 0.0685231 23.6757 -0.327159 27.117 2.13295C36.6737 8.96631 36.4021 29.3748 25.5297 34.8708C21.8931 36.7091 17.2279 35.6759 13.2686 35.9764C5.29271 35.6693 0.944814 28.1675 0.149633 20.9147C-0.859905 11.7138 3.19532 0.438906 13.7375 0.0133704ZM12.9443 1.06127C11.4714 1.18119 10.0276 1.5789 8.72744 2.27615L9.43126 4.19789L11.0864 2.50232L12.9443 1.06127ZM20.7656 1.12654C17.6376 1.38864 14.368 3.94338 12.7726 6.58008C8.46941 13.6922 8.66269 25.1377 14.3243 31.4711C18.4358 36.0705 24.6657 35.8869 28.606 31.1908C33.981 24.784 34.3464 14.8687 30.491 7.58699C28.7189 4.23988 24.7666 0.791073 20.7661 1.12654H20.7656ZM16.6341 1.16196H14.5758C14.502 1.16196 13.4528 1.80355 13.2997 1.89969C12.6918 2.28222 11.9483 2.80895 11.488 3.3625C11.4408 3.41917 11.366 3.44447 11.3881 3.5396C11.9353 3.36453 12.4805 3.13177 13.0427 3.00679C13.48 2.90914 14.2701 2.91319 14.6034 2.80895C14.749 2.76341 16.3278 1.58649 16.5181 1.41141C16.5718 1.36183 16.6024 1.28947 16.6848 1.26316C16.732 1.23584 16.6476 1.165 16.6341 1.16146V1.16196ZM7.82333 2.73052C7.74752 2.67487 7.17021 3.1768 7.07031 3.2613C6.85797 3.43992 5.50505 4.65732 5.47142 4.7904C5.85897 5.83324 6.32483 6.83712 6.89562 7.78939C7.45184 6.86191 7.98146 5.91369 8.65365 5.06363L7.82383 2.73052H7.82333ZM13.4965 3.9454C13.4478 3.90846 12.4498 4.14172 12.3027 4.18372C11.8319 4.3173 10.3504 4.84403 9.98497 5.0859C9.68979 5.28121 9.25656 5.85753 9.03819 6.15555C8.66118 6.67115 8.3424 7.23634 8.02463 7.78989L10.4162 6.43132L12.1376 5.78821L13.4965 3.9454ZM5.16268 12.3949C5.38959 11.2099 5.91469 10.119 6.30325 8.98757C5.87905 7.85112 5.26108 6.80676 4.73648 5.71686C3.99451 6.64434 3.41319 7.70084 2.90766 8.77758L5.16268 12.3949ZM6.0673 12.6985L10.0613 9.91909L11.3379 7.13312C9.8173 7.72411 8.4157 8.59947 7.12001 9.58564C6.70435 10.5981 6.34993 11.6394 6.0673 12.6985ZM4.54672 17.0879C4.59843 16.9968 4.50254 16.8304 4.50656 16.7211C4.54371 15.7496 4.742 14.7745 4.8404 13.8096L2.42724 9.96716C1.93226 11.2453 1.59742 12.5796 1.34542 13.928C2.15716 14.6835 2.80475 15.6049 3.53116 16.4433C3.80375 16.758 4.14712 17.0626 4.36098 17.4037L4.46088 17.3789C4.38859 17.1588 4.52011 17.135 4.54672 17.0879ZM9.73146 11.2822L5.79421 14.0682C5.53919 15.2026 5.39511 16.3851 5.41419 17.5555L9.02313 14.641L9.19933 13.5946C9.50556 12.8579 9.41871 12.022 9.73096 11.2822H9.73146ZM4.86198 22.4129C4.64461 21.2446 4.53718 20.0571 4.43427 18.8725C3.82032 18.1449 3.15264 17.4629 2.52664 16.7474C2.22995 16.4079 1.98096 16.0157 1.67473 15.6833C1.6155 15.619 1.15013 15.1181 1.09692 15.1783C1.10797 16.4954 0.87654 17.8181 1.07082 19.1265C2.12704 20.1345 3.24903 21.232 4.41519 22.1306C4.47995 22.1807 4.81429 22.4534 4.86198 22.4134V22.4129ZM8.87805 15.9879C8.84542 15.9494 8.59893 16.1549 8.55325 16.1913C7.47192 17.0611 6.42122 17.9947 5.42473 18.9581C5.42473 20.2367 5.64813 21.5113 5.867 22.7676C6.29522 22.3522 6.64562 21.8493 7.04572 21.401C7.5904 20.7897 8.18728 20.2205 8.71791 19.5951L8.72594 17.7816L8.87855 15.9879H8.87805ZM6.117 27.068L5.03517 24.0351C3.9172 22.965 2.75455 21.9419 1.59793 20.9218C1.42574 20.77 1.28869 20.5711 1.09692 20.4406C1.20234 21.6555 1.42674 22.8628 1.69582 24.0488C2.61801 24.7987 3.58236 25.5136 4.57433 26.1694C4.74451 26.2817 6.03768 27.1343 6.1165 27.0685L6.117 27.068ZM8.85295 20.8965C7.88056 21.8989 6.97293 22.9554 6.12554 24.068C6.37704 25.1777 6.83337 26.2377 7.29672 27.2699L9.57232 24.1986L8.85295 20.8965ZM9.83286 25.4494L7.78819 28.3583C8.25556 29.307 8.83136 30.2026 9.50606 31.0142L10.9835 28.2576C10.7018 27.6216 10.4453 26.9719 10.1968 26.3222C10.1662 26.2422 9.92624 25.3866 9.83337 25.4494H9.83286ZM2.30124 25.7034L2.20234 25.7272C2.59391 26.6916 2.96941 27.7066 3.53618 28.5824C3.97493 29.261 4.13809 29.3475 4.86399 29.6728C5.89762 30.1363 7.04622 30.5264 8.12503 30.8634L6.80676 28.6507C5.2671 27.8412 3.83588 26.6197 2.33538 25.8051C2.30475 25.7884 2.30024 25.7373 2.30124 25.7034ZM12.4423 33.8994C12.5814 33.1647 13.0603 32.5524 13.2877 31.8628L11.5141 29.347L10.2515 31.9528C10.2631 32.0515 10.9589 32.7462 11.0869 32.8631C11.3961 33.1449 11.9749 33.6357 12.3178 33.8488C12.3575 33.8736 12.363 33.9226 12.4423 33.8999V33.8994ZM10.3153 33.363C10.1757 33.232 9.93628 33.1065 9.78116 32.9643C9.58136 32.7811 9.24853 32.3166 9.06429 32.2195C8.6923 32.0242 7.85947 31.8805 7.39662 31.7246C6.60495 31.458 5.84793 31.0967 5.06329 30.8133C5.21891 30.9955 5.38457 31.1873 5.56329 31.3461C6.08738 31.8137 6.58538 32.3485 7.14813 32.7847C8.50204 33.8341 10.1461 34.3988 11.7902 34.8096C11.6401 34.5637 11.367 34.4423 11.1612 34.2551C10.86 33.9798 10.6029 33.6332 10.3153 33.363ZM16.7596 34.7595C16.7817 34.6649 16.7279 34.6614 16.6762 34.6163C16.4132 34.3866 15.8896 34.1382 15.5693 33.9105C15.0156 33.5173 14.4895 33.0827 14.0241 32.5848L13.2415 34.5759C13.6521 34.9761 13.9092 34.8172 14.373 34.8081C14.8369 34.799 15.2776 34.7757 15.7284 34.7575C16.0708 34.7438 16.4172 34.7722 16.7596 34.7595Z" fill="#8EB39C"/>
<path d="M20.7656 5.83156C22.629 5.65042 24.3936 6.31782 25.8198 7.48816C31.5487 12.1888 31.5934 24.5136 25.3303 28.7999C20.8313 31.8788 16.0522 29.0599 14.1406 24.5222C12.2289 19.984 12.3665 14.2719 14.9317 10.0211C16.0914 8.0994 18.4659 6.05521 20.7656 5.83207V5.83156ZM29.1958 18.8101C29.247 18.7105 29.1361 18.6508 29.1335 18.5941C29.115 18.1817 29.1822 17.7066 29.1612 17.2755C28.9819 13.5458 27.1983 8.82751 23.5703 7.27565C19.2651 5.43385 15.5999 9.57739 14.4368 13.3682C12.9257 18.294 13.8916 25.6056 18.7334 28.3424C23.9619 31.2974 28.4267 25.2524 29.0075 20.5153C29.0623 20.068 29.0482 19.0986 29.1953 18.8101H29.1958Z" fill="#8EB39C"/>
<path d="M21.0166 8.36199C23.3976 8.14948 25.7068 9.94472 26.8082 11.956C28.7435 15.4909 28.7676 20.7258 26.6897 24.1999C25.0883 26.8771 22.4955 28.477 19.3865 27.1787C12.2962 24.2176 13.1732 9.06228 21.0166 8.3625V8.36199ZM20.9664 9.37397C19.378 9.52475 18.1024 10.6622 17.1913 11.8938C14.2706 15.843 14.8378 24.1058 19.7721 26.2325C22.0161 27.1999 23.7706 26.3073 25.2691 24.5895C27.869 21.6093 27.88 16.0176 26.1054 12.6133C25.1792 10.8368 23.0407 9.17613 20.9664 9.37346V9.37397Z" fill="#8EB39C"/>
<path d="M21.367 15.0906C23.2083 15.0617 23.8263 17.6934 23.383 19.1466C22.5085 22.015 19.6802 21.505 19.2264 18.7377C18.9975 17.3412 19.6983 15.1164 21.367 15.0906ZM21.1642 16.2017C19.9488 16.4314 19.8178 19.3778 21.0266 19.9091C21.8594 20.2754 22.4478 19.2295 22.5276 18.5368C22.627 17.6772 22.3469 15.9781 21.1642 16.2017Z" fill="#8EB39C"/>
<path d="M24.8293 14.7845C25.7244 14.6418 26.2475 15.7074 26.2475 16.4679C26.2475 17.3483 25.5141 18.6487 24.505 18.0724C23.4152 17.45 23.5256 14.9924 24.8293 14.7845ZM24.8273 15.8966C24.4337 16.015 24.5045 17.1869 24.9995 17.1257C25.5607 17.0558 25.5256 15.6866 24.8273 15.8966Z" fill="#8EB39C"/>
<path d="M19.008 20.5517C20.0898 20.4662 20.4588 21.9745 20.249 22.8185C19.7615 24.7772 17.8112 24.0375 17.8097 22.2867C17.8097 21.6517 18.2957 20.6079 19.008 20.5517ZM19.004 21.6644C18.6119 21.7843 18.5432 22.7624 18.9658 22.897C19.6611 23.1186 19.7103 21.4483 19.004 21.6644Z" fill="#8EB39C"/>
<path d="M17.6516 14.7855C18.7811 14.6459 19.1576 16.1168 18.9448 17.0007C18.7701 17.7258 18.0798 18.5784 17.2947 18.0532C16.2465 17.3524 16.2681 14.9565 17.6511 14.7855H17.6516ZM18.0005 17.0351C18.4749 16.641 17.9458 15.2738 17.4398 16.0404C17.114 16.5347 17.5618 17.3994 18.0005 17.0351Z" fill="#8EB39C"/>
<path d="M23.5753 20.5506C23.8911 20.5117 24.2615 20.7196 24.4659 20.9453C25.6069 22.2052 24.4995 24.9153 22.9332 23.6539C22.0427 22.9369 22.3524 20.7019 23.5753 20.5506ZM23.4488 23.0072C23.4925 23.0492 23.6034 23.073 23.6642 23.074C24.242 23.0836 24.3173 21.6861 23.6938 21.6294C23.0969 21.5753 23.1516 22.7198 23.4488 23.0072Z" fill="#8EB39C"/>
<path d="M21.1637 11.0912C21.9935 10.9379 22.5728 11.9008 22.6325 12.6228C22.7028 13.4769 22.0166 14.8553 21.0075 14.413C20.2646 14.0877 20.0236 13.014 20.1878 12.2823C20.2851 11.8477 20.6963 11.1777 21.1642 11.0912H21.1637ZM21.365 12.047C20.9137 12.1133 20.7595 13.5088 21.4031 13.5103C21.7123 13.5108 21.8444 13.0848 21.8333 12.8237C21.8243 12.6173 21.6114 12.0106 21.365 12.047Z" fill="#8EB39C"/>
</svg>
